<?xml version="1.0" encoding="UTF-8" standalone="no"?>
<!-- Created with Inkscape (http://www.inkscape.org/) -->

<svg
   width="170"
   height="49"
   viewBox="0 0 44.979166 12.964583"
   version="1.1"
   id="svg5"
   xmlns="http://www.w3.org/2000/svg"
   xmlns:svg="http://www.w3.org/2000/svg">
  <defs
     id="defs2" />
  <g
     id="layer4"
     style="display:none">
    <path
       id="rect771"
       style="fill:#000080;stroke-width:0.264583"
       d="M 44.979164,0 V 12.964582 H 0 Z" />
    <path
       id="rect940"
       style="fill:#ff0000;stroke-width:0.264583"
       d="M 0,0 H 44.979168 L 0,12.964583 Z" />
  </g>
  <g
     id="layer1">
    <g
       aria-label="P"
       id="text113"
       style="font-size:13.4419px;fill:#003a86;fill-opacity:1;stroke-width:1.12015">
      <path
         d="m 7.4511119,3.4827091 q 0,0.6497794 -0.22972,1.2076708 Q 6.9982353,5.2417078 6.5913028,5.6486403 6.0859189,6.1540243 5.3967589,6.409998 4.707599,6.6594082 3.6574506,6.6594082 H 2.3578918 V 10.302111 H 1.0583331 V 0.52916659 H 3.709958 q 0.8794993,0 1.4898981,0.15095884 0.6103988,0.14439541 1.0829656,0.45943997 0.5578914,0.3741154 0.859809,0.9320067 0.3084812,0.5578914 0.3084812,1.411137 z m -1.3520662,0.032817 q 0,-0.505384 -0.1772125,-0.8794994 Q 5.7446206,2.2619115 5.3836321,2.0256281 5.0685875,1.8221619 4.661655,1.7368373 4.2612859,1.6449493 3.6443237,1.6449493 H 2.3578918 v 3.9052396 h 1.0960925 q 0.7876113,0 1.2798684,-0.137832 Q 5.2261098,5.2679615 5.5345909,4.9594804 5.843072,4.6444359 5.9677772,4.2965742 6.0990457,3.9487125 6.0990457,3.5155261 Z"
         id="path248"
         style="fill:#003a86;fill-opacity:1" />
    </g>
    <g
       aria-label="S"
       id="text117"
       style="font-size:13.6854px;fill:#fb5607;fill-opacity:1;stroke-width:1.14045">
      <path
         d="m 11.292799,9.4150066 q 0,0.5813622 -0.273975,1.1493594 -0.267293,0.567998 -0.755103,0.962255 -0.5345858,0.427669 -1.2495945,0.668232 -0.7083263,0.240564 -1.710675,0.240564 -1.0758542,0 -1.937874,-0.20047 Q 4.51024,12.034478 3.6214909,11.640221 V 9.9830042 h 0.093552 q 0.7551027,0.6281388 1.7440866,0.9689368 0.988984,0.340799 1.8576862,0.340799 1.2295476,0 1.9111447,-0.461081 0.6882794,-0.46108 0.6882794,-1.2295473 0,-0.6615501 -0.3274339,-0.9756194 Q 9.2680549,8.3124231 8.6065048,8.1386827 8.1053304,8.0050362 7.5172859,7.918166 6.9359237,7.8312958 6.2810559,7.6976493 4.9579557,7.4169917 4.3164526,6.7420769 3.6816318,6.0604798 3.6816318,4.971261 q 0,-1.2495946 1.0558072,-2.0447912 1.0558073,-0.8018789 2.679612,-0.8018789 1.0491249,0 1.9245094,0.2004697 0.8753846,0.2004697 1.5502996,0.494492 V 4.3832165 H 10.79831 Q 10.23031,3.9020891 9.3014665,3.5880199 8.3793057,3.2672683 7.4103687,3.2672683 q -1.0624895,0 -1.710675,0.4410334 -0.6415031,0.4410334 -0.6415031,1.1359951 0,0.6214562 0.3207516,0.9756194 0.3207515,0.3541631 1.1293127,0.5412682 0.4276688,0.093553 1.2161831,0.2271991 0.7885142,0.1336464 1.3364648,0.2739752 1.1092662,0.2940223 1.6705812,0.8887492 0.561315,0.5947268 0.561315,1.6638987 z"
         id="path198"
         style="fill:#fb5607;fill-opacity:1" />
    </g>
  </g>
  <g
     id="layer2">
    <path
       id="text113-1"
       style="font-size:13.4419px;display:inline;fill:#003a86;fill-opacity:1;stroke-width:1.12015"
       d="M 3.4597371,0.52916667 V 1.6448608 H 3.644222 c 0.4113077,0 0.7505965,0.030725 1.017509,0.091984 0.271288,0.056883 0.5118902,0.1532272 0.7219197,0.2888712 0.2406588,0.1575222 0.4198101,0.3608887 0.5379517,0.6102987 0.1181416,0.24941 0.1772501,0.5426106 0.1772501,0.8795329 0,0.2887905 -0.043746,0.5489233 -0.1312581,0.7808309 C 5.8844577,4.5282861 5.7401998,4.7493577 5.5345459,4.9593872 5.328892,5.1650411 5.062249,5.316326 4.734078,5.4125895 4.4071494,5.5041295 3.9820802,5.5497023 3.4597371,5.5500488 v 1.109493 h 0.1979208 c 0.7000982,0 1.2794724,-0.083324 1.7389119,-0.2495971 C 5.8560093,6.2392957 6.2544066,5.9856731 6.5913289,5.6487508 6.862617,5.3774627 7.0724938,5.0577046 7.2212646,4.690153 7.3744111,4.3182258 7.4512248,3.9156606 7.4512248,3.4824748 7.4512248,2.9136449 7.3483703,2.4436354 7.1427165,2.0717082 6.9414382,1.699781 6.6547478,1.3888753 6.2828206,1.1394653 5.9677764,0.92943585 5.6066147,0.77632536 5.1996826,0.68006185 4.7927505,0.57942272 4.2961834,0.52916667 3.7098511,0.52916667 Z" />
    <path
       id="text117-6"
       style="font-size:13.6854px;fill:#fb5607;fill-opacity:1;stroke-width:1.14045"
       d="m 7.4109172,2.1244181 c -1.0825355,0 -1.9755523,0.2674329 -2.6794231,0.8020183 C 4.098934,3.4028583 3.7532665,4.002661 3.6891805,4.7237427 H 5.0591227 C 5.093722,4.3152655 5.3040114,3.9762181 5.6937093,3.7083008 c 0.4321232,-0.294022 1.0021643,-0.4408 1.7104899,-0.4408 0.6459574,0 1.2765842,0.1065597 1.8913574,0.3203939 0.6192281,0.2093793 1.1184014,0.474549 1.4970664,0.7953003 h 0.09353 V 2.8194661 C 10.436215,2.6234515 9.9194533,2.458569 9.3358643,2.3249227 8.7522752,2.1912763 8.1103331,2.1244181 7.4109172,2.1244181 Z" />
  </g>
  <g
     id="layer3">
    <g
       aria-label="Perfect"
       id="text527"
       style="font-size:7.26279px;fill:#003a86;fill-opacity:1;stroke-width:0.605232">
      <path
         d="m 15.584081,2.068892 q 0,0.3510822 -0.12412,0.6525163 -0.120574,0.2978879 -0.340444,0.5177575 -0.273063,0.2730639 -0.645423,0.411369 -0.37236,0.1347588 -0.939766,0.1347588 H 12.832164 V 5.7534814 H 12.13 V 0.4730641 h 1.432699 q 0.475202,0 0.805006,0.0815645 0.329805,0.0780182 0.585137,0.24823989 0.301434,0.20213821 0.464563,0.50357241 0.166676,0.3014342 0.166676,0.7624511 z m -0.730535,0.017731 q 0,-0.2730638 -0.09575,-0.475202 Q 14.662047,1.4092831 14.467001,1.2816169 14.29678,1.1716821 14.07691,1.1255804 13.860587,1.0759324 13.527236,1.0759324 h -0.695072 v 2.1100392 h 0.59223 q 0.425554,0 0.691525,-0.074472 0.265971,-0.078018 0.432647,-0.2446936 0.166675,-0.1702217 0.234054,-0.3581747 0.07093,-0.1879531 0.07093,-0.4220079 z"
         id="path251"
         style="fill:#003a86;fill-opacity:1" />
      <path
         d="m 19.594928,3.8420342 h -2.918592 q 0,0.3652672 0.109935,0.6383311 0.109935,0.2695176 0.301434,0.4432856 0.184407,0.1702216 0.436193,0.2553324 0.255333,0.085111 0.560313,0.085111 0.404276,0 0.812099,-0.1595828 0.411369,-0.1631291 0.585137,-0.3191656 h 0.03546 v 0.7269883 q -0.336897,0.1418513 -0.687979,0.237601 -0.351082,0.09575 -0.737627,0.09575 -0.985867,0 -1.539088,-0.5319427 -0.55322,-0.5354889 -0.55322,-1.5178096 0,-0.9716819 0.528396,-1.5426337 0.531943,-0.5709518 1.397236,-0.5709518 0.801461,0 1.234107,0.4681096 0.436193,0.4681095 0.436193,1.3298566 z m -0.64897,-0.510665 q -0.0035,-0.52485 -0.265971,-0.8120991 -0.258879,-0.287249 -0.790822,-0.287249 -0.535488,0 -0.854654,0.3156193 -0.315619,0.3156193 -0.358175,0.7837288 z"
         id="path253"
         style="fill:#003a86;fill-opacity:1" />
      <path
         d="m 23.07738,2.5192701 h -0.03546 q -0.148944,-0.035463 -0.290795,-0.049648 -0.138305,-0.017731 -0.329805,-0.017731 -0.308526,0 -0.595775,0.1383051 -0.287249,0.1347588 -0.553221,0.3510822 v 2.812203 H 20.60562 V 1.7922818 h 0.666701 v 0.585137 q 0.397184,-0.3191656 0.698618,-0.4503781 0.304981,-0.1347589 0.6206,-0.1347589 0.173768,0 0.251786,0.010639 0.07802,0.00709 0.234055,0.031917 z"
         id="path255"
         style="fill:#003a86;fill-opacity:1" />
      <path
         d="m 25.836389,0.88088679 h -0.03546 q -0.109935,-0.0319166 -0.287249,-0.0638331 -0.177314,-0.0354628 -0.312073,-0.0354628 -0.429101,0 -0.624146,0.19149935 -0.1915,0.18795306 -0.1915,0.68443286 v 0.1347588 h 1.202191 v 0.560313 H 24.407236 V 5.7534814 H 23.740535 V 2.3525948 h -0.450378 v -0.560313 h 0.450378 V 1.6610693 q 0,-0.70571054 0.351082,-1.08161667 0.351082,-0.37945242 1.014237,-0.37945242 0.223416,0 0.40073,0.0212777 0.180861,0.0212777 0.329805,0.049648 z"
         id="path257"
         style="fill:#003a86;fill-opacity:1" />
      <path
         d="M 29.574172,3.8420342 H 26.65558 q 0,0.3652672 0.109935,0.6383311 0.109935,0.2695176 0.301434,0.4432856 0.184407,0.1702216 0.436193,0.2553324 0.255333,0.085111 0.560313,0.085111 0.404277,0 0.812099,-0.1595828 0.411369,-0.1631291 0.585137,-0.3191656 h 0.03546 v 0.7269883 q -0.336897,0.1418513 -0.687979,0.237601 -0.351082,0.09575 -0.737627,0.09575 -0.985867,0 -1.539087,-0.5319427 -0.553221,-0.5354889 -0.553221,-1.5178096 0,-0.9716819 0.528397,-1.5426337 0.531942,-0.5709518 1.397236,-0.5709518 0.80146,0 1.234106,0.4681096 0.436193,0.4681095 0.436193,1.3298566 z m -0.64897,-0.510665 q -0.0035,-0.52485 -0.265971,-0.8120991 -0.258879,-0.287249 -0.790821,-0.287249 -0.535489,0 -0.854655,0.3156193 -0.315619,0.3156193 -0.358175,0.7837288 z"
         id="path259"
         style="fill:#003a86;fill-opacity:1" />
      <path
         d="m 33.514095,5.5052415 q -0.333351,0.1595828 -0.634785,0.2482399 -0.297888,0.088657 -0.634785,0.088657 -0.4291,0 -0.787275,-0.12412 Q 31.099075,5.5903523 30.843743,5.3350198 30.584864,5.0796874 30.443013,4.6895961 30.301161,4.2995048 30.301161,3.778201 q 0,-0.9716818 0.531943,-1.5249022 0.535489,-0.5532203 1.411421,-0.5532203 0.340443,0 0.666702,0.09575 0.329804,0.09575 0.602868,0.2340548 v 0.7411734 h -0.03546 Q 33.173652,2.5334553 32.847393,2.405789 32.524682,2.2781228 32.216155,2.2781228 q -0.567406,0 -0.89721,0.3829987 -0.326258,0.3794524 -0.326258,1.1170795 0,0.7163495 0.319165,1.1028945 0.322712,0.3829987 0.904303,0.3829987 0.202138,0 0.411369,-0.053194 0.209231,-0.053194 0.375906,-0.1383051 0.145398,-0.074472 0.273064,-0.1560365 0.127666,-0.085111 0.202138,-0.1453977 h 0.03546 z"
         id="path261"
         style="fill:#003a86;fill-opacity:1" />
      <path
         d="m 36.425593,5.7180185 q -0.187953,0.049648 -0.411369,0.081565 -0.21987,0.031916 -0.393637,0.031916 -0.606415,0 -0.922034,-0.3262581 -0.31562,-0.3262582 -0.31562,-1.0461539 V 2.3525948 h -0.450378 v -0.560313 h 0.450378 V 0.6539246 h 0.666702 v 1.1383572 h 1.375958 v 0.560313 h -1.375958 v 1.8050587 q 0,0.312073 0.01418,0.4893872 0.01418,0.1737679 0.0993,0.3262581 0.07802,0.1418514 0.212777,0.2092308 0.138305,0.063833 0.418461,0.063833 0.16313,0 0.340444,-0.046102 0.177314,-0.049648 0.255332,-0.081564 h 0.03546 z"
         id="path263"
         style="fill:#003a86;fill-opacity:1" />
    </g>
    <g
       aria-label="Shapes"
       id="text527-1"
       style="font-size:7.26279px;fill:#fb5607;fill-opacity:1;stroke-width:0.605232">
      <path
         d="m 22.665218,9.7958478 q 0,0.3085262 -0.145398,0.6099612 -0.141851,0.301434 -0.40073,0.510665 -0.283703,0.226962 -0.663155,0.354628 -0.375906,0.127666 -0.907849,0.127666 -0.570952,0 -1.028422,-0.106388 -0.453925,-0.106389 -0.925581,-0.31562 v -0.879478 h 0.04965 q 0.40073,0.333351 0.92558,0.514211 0.524851,0.180861 0.985868,0.180861 0.652516,0 1.014237,-0.244694 0.365267,-0.244694 0.365267,-0.6525163 0,-0.3510821 -0.173768,-0.5177575 Q 21.590694,9.2107108 21.239611,9.1185075 20.97364,9.0475818 20.661567,9.0014801 20.35304,8.9553784 20.005504,8.8844527 19.30334,8.7355088 18.962897,8.377334 18.626,8.015613 18.626,7.4375687 q 0,-0.6631552 0.560313,-1.085163 0.560313,-0.4255541 1.42206,-0.4255541 0.556766,0 1.02133,0.1063885 0.464563,0.1063886 0.822738,0.2624251 v 0.8298305 h -0.04965 Q 22.101358,6.8701632 21.608425,6.7034879 21.119038,6.5332662 20.604827,6.5332662 q -0.56386,0 -0.907849,0.2340548 -0.340444,0.2340547 -0.340444,0.6028683 0,0.3298044 0.170222,0.5177575 0.170222,0.1879531 0.599322,0.287249 0.226962,0.049648 0.645424,0.1205737 0.418461,0.070926 0.709257,0.1453977 0.588683,0.1560365 0.886571,0.4716558 0.297888,0.3156193 0.297888,0.8830248 z"
         style="fill:#fb5607;fill-opacity:1"
         id="path266" />
      <path
         d="M 27.051971,11.303019 H 26.38527 V 9.0475818 q 0,-0.2730639 -0.03192,-0.510665 -0.03192,-0.2411473 -0.117027,-0.3759061 -0.08866,-0.1489439 -0.255333,-0.2198696 -0.166675,-0.074472 -0.432646,-0.074472 -0.273064,0 -0.570952,0.1347588 -0.297888,0.1347588 -0.570952,0.3439896 V 11.303019 H 23.739742 V 5.7850002 h 0.666701 v 1.9965581 q 0.312073,-0.2588788 0.645424,-0.4042764 0.333351,-0.1453977 0.684433,-0.1453977 0.641877,0 0.978774,0.386545 0.336897,0.386545 0.336897,1.1135333 z"
         style="fill:#fb5607;fill-opacity:1"
         id="path268" />
      <path
         d="m 31.413901,11.303019 h -0.663155 v -0.422008 q -0.08866,0.06029 -0.241147,0.170221 -0.148944,0.106389 -0.290796,0.170222 -0.166675,0.08157 -0.382999,0.134759 -0.216323,0.05674 -0.507118,0.05674 -0.535489,0 -0.907849,-0.354628 -0.37236,-0.354628 -0.37236,-0.904303 0,-0.4503776 0.1915,-0.7269878 0.195045,-0.2801565 0.55322,-0.4397393 0.361721,-0.1595828 0.86884,-0.2163233 0.507118,-0.056741 1.088709,-0.085111 V 8.5830185 q 0,-0.2269622 -0.08157,-0.3759061 -0.07802,-0.1489439 -0.226962,-0.2340548 -0.141851,-0.081564 -0.340443,-0.1099348 -0.198592,-0.02837 -0.414915,-0.02837 -0.262425,0 -0.585137,0.070926 -0.322712,0.067379 -0.666702,0.198592 h -0.03546 V 7.4269299 q 0.195046,-0.053194 0.56386,-0.1170274 0.368813,-0.063833 0.726988,-0.063833 0.418461,0 0.726988,0.070926 0.312073,0.067379 0.539035,0.2340548 0.223416,0.1631291 0.340444,0.4220078 0.117027,0.2588788 0.117027,0.6418775 z M 30.750746,10.32779 V 9.224896 q -0.304981,0.017731 -0.719896,0.053194 -0.411369,0.035463 -0.652516,0.1028423 -0.287249,0.081565 -0.464563,0.2553325 -0.177315,0.1702216 -0.177315,0.4716562 0,0.340443 0.205685,0.514211 0.205684,0.170222 0.627692,0.170222 0.351082,0 0.641878,-0.134759 0.290795,-0.138305 0.539035,-0.329805 z"
         style="fill:#fb5607;fill-opacity:1"
         id="path270" />
      <path
         d="m 36.183654,9.274544 q 0,0.4822946 -0.138305,0.883025 -0.138306,0.397184 -0.390092,0.673794 -0.234055,0.262425 -0.55322,0.407822 -0.315619,0.141852 -0.670248,0.141852 -0.308527,0 -0.560313,-0.06738 -0.24824,-0.06738 -0.507118,-0.20923 v 1.659661 H 32.697656 V 7.341819 h 0.666702 v 0.4149153 q 0.265971,-0.2234159 0.595775,-0.3723599 0.333351,-0.1524902 0.709257,-0.1524902 0.71635,0 1.113533,0.5425815 0.400731,0.5390352 0.400731,1.5000783 z m -0.68798,0.017731 q 0,-0.7163494 -0.244693,-1.0709779 -0.244694,-0.3546284 -0.751812,-0.3546284 -0.287249,0 -0.578045,0.12412 -0.290795,0.1241199 -0.556766,0.3262581 v 2.2447982 q 0.283702,0.127666 0.485841,0.173768 0.205684,0.0461 0.464563,0.0461 0.556766,0 0.868839,-0.375906 0.312073,-0.375906 0.312073,-1.113534 z"
         style="fill:#fb5607;fill-opacity:1"
         id="path272" />
      <path
         d="m 40.538491,9.3915713 h -2.918592 q 0,0.3652673 0.109935,0.6383317 0.109934,0.269517 0.301434,0.443285 0.184406,0.170222 0.436193,0.255333 0.255332,0.08511 0.560313,0.08511 0.404276,0 0.812099,-0.159582 0.411369,-0.16313 0.585137,-0.319166 h 0.03546 v 0.726988 q -0.336897,0.141852 -0.687979,0.237601 -0.351082,0.09575 -0.737627,0.09575 -0.985867,0 -1.539087,-0.531943 -0.553221,-0.535489 -0.553221,-1.5178094 0,-0.9716818 0.528397,-1.5426336 0.531942,-0.5709518 1.397236,-0.5709518 0.80146,0 1.234107,0.4681095 0.436193,0.4681096 0.436193,1.3298566 z m -0.64897,-0.5106649 q -0.0035,-0.5248501 -0.265972,-0.8120991 -0.258878,-0.287249 -0.790821,-0.287249 -0.535489,0 -0.854655,0.3156193 -0.315619,0.3156193 -0.358174,0.7837288 z"
         style="fill:#fb5607;fill-opacity:1"
         id="path274" />
      <path
         d="m 44.379117,10.161115 q 0,0.542582 -0.450378,0.890117 -0.446832,0.347536 -1.223468,0.347536 -0.439739,0 -0.808553,-0.102842 -0.365267,-0.106389 -0.613507,-0.230508 v -0.748266 h 0.03546 q 0.315619,0.237601 0.702164,0.379452 0.386545,0.138305 0.741174,0.138305 0.439739,0 0.687979,-0.141851 0.24824,-0.141852 0.24824,-0.446832 0,-0.234055 -0.134759,-0.3546286 Q 43.428713,9.7710238 43.045714,9.6859129 42.903863,9.6539964 42.673355,9.611441 42.446392,9.5688856 42.258439,9.5192376 41.737135,9.3809325 41.517266,9.1149612 41.300943,8.8454436 41.300943,8.4553523 q 0,-0.2446936 0.0993,-0.461017 0.102843,-0.2163233 0.308527,-0.3865449 0.198592,-0.1666754 0.503573,-0.2624251 0.308526,-0.099296 0.687979,-0.099296 0.354628,0 0.716349,0.088657 0.365267,0.085111 0.606415,0.2092307 v 0.7128032 h -0.03546 q -0.255333,-0.1879531 -0.6206,-0.3156193 -0.365267,-0.1312125 -0.716349,-0.1312125 -0.365268,0 -0.617054,0.1418513 -0.251786,0.1383051 -0.251786,0.4149153 0,0.2446936 0.15249,0.3688136 0.148944,0.1241199 0.482295,0.2021382 0.184407,0.042555 0.411369,0.085111 0.230508,0.042555 0.382999,0.078018 0.464563,0.1063886 0.716349,0.3652673 0.251786,0.2624251 0.251786,0.6950719 z"
         style="fill:#fb5607;fill-opacity:1"
         id="path276" />
    </g>
  </g>
</svg>
